# xmcd
#
# Track frame offsets:
#	150
#	20431
#	42809
#	66694
#	85129
#	107151
#	125835
#	144439
#	161127
#	186465
#	205560
#
# Disc length: 3012 seconds
#
# Revision: 2
# Processed by: cddbd v1.5.2PL0 Copyright (c) Steve Scherf et al.
# Submitted via: EZCDAudioConverter 8.0.2.1
#
DISCID=a10bc20b
DTITLE=Quang Hà - Ngỡ
DYEAR=2011
DGENRE=World Pop
TTITLE0=Bởi thế anh yêu em
TTITLE1=Bình yên
TTITLE2=Cơn mưa mùa đông
TTITLE3=Ngỡ
TTITLE4=Nhớ
TTITLE5=Nguời về nơi đâu
TTITLE6=Trăm năm không quên
TTITLE7=Gọi
TTITLE8=Khóc
TTITLE9=Lỡ yêu em
TTITLE10=Ngày mai anh phải quên
EXTD=
EXTT0=
EXTT1=
EXTT2=
EXTT3=
EXTT4=
EXTT5=
EXTT6=
EXTT7=
EXTT8=
EXTT9=
EXTT10=
PLAYORDER=
